<?xml version="1.0" encoding="UTF-8"?>
<svg xmlns="http://www.w3.org/2000/svg" viewBox="0 0 64 64">
    <defs>
        <style>
            svg {
                --color-light: #ffbfcb;
                --color-dark: #120e12;
            }

            @media not (prefers-color-scheme: dark) {
                .rect {
                    fill: var(--color-dark);
                }

                .text{
                    fill: var(--color-light);
                }
            }

            @media (prefers-color-scheme: dark) {
                .rect {
                    fill:var(--color-light);
                }

                .text{
                    fill: var(--color-dark);
                }
            }
        </style>
    </defs>
    <rect class="rect" x="0" width="64" height="64" rx="19" ry="19"/>
    <path class="text"
          d="M8.55,12.43h3.33v3.33h-3.33v-3.33ZM8.55,45.76h3.33v3.33h-3.33v-3.33ZM11.88,12.43h3.33v3.33h-3.33v-3.33ZM11.88,15.76h3.33v3.33h-3.33v-3.33ZM11.88,25.76h3.33v3.33h-3.33v-3.33ZM11.88,32.43h3.33v3.33h-3.33v-3.33ZM11.88,45.76h3.33v3.33h-3.33v-3.33ZM15.22,15.76h3.33v3.33h-3.33v-3.33ZM15.22,25.76h3.33v3.33h-3.33v-3.33ZM15.22,32.43h3.33v3.33h-3.33v-3.33ZM15.22,42.43h3.33v3.33h-3.33v-3.33ZM15.22,45.76h3.33v3.33h-3.33v-3.33ZM15.22,49.09h3.33v3.33h-3.33v-3.33ZM18.55,12.43h3.33v3.33h-3.33v-3.33ZM18.55,15.76h3.33v3.33h-3.33v-3.33ZM18.55,19.09h3.33v3.33h-3.33v-3.33ZM18.55,22.43h3.33v3.33h-3.33v-3.33ZM18.55,25.76h3.33v3.33h-3.33v-3.33ZM18.55,29.09h3.33v3.33h-3.33v-3.33ZM18.55,32.43h3.33v3.33h-3.33v-3.33ZM18.55,35.76h3.33v3.33h-3.33v-3.33ZM18.55,39.09h3.33v3.33h-3.33v-3.33ZM18.55,45.76h3.33v3.33h-3.33v-3.33ZM18.55,49.09h3.33v3.33h-3.33v-3.33ZM21.88,15.76h3.33v3.33h-3.33v-3.33ZM21.88,19.09h3.33v3.33h-3.33v-3.33ZM21.88,22.43h3.33v3.33h-3.33v-3.33ZM21.88,25.76h3.33v3.33h-3.33v-3.33ZM21.88,29.09h3.33v3.33h-3.33v-3.33ZM21.88,32.43h3.33v3.33h-3.33v-3.33ZM21.88,35.76h3.33v3.33h-3.33v-3.33ZM21.88,45.76h3.33v3.33h-3.33v-3.33ZM25.22,15.76h3.33v3.33h-3.33v-3.33ZM25.22,42.43h3.33v3.33h-3.33v-3.33ZM28.55,12.43h3.33v3.33h-3.33v-3.33ZM28.55,15.76h3.33v3.33h-3.33v-3.33ZM28.55,29.09h3.33v3.33h-3.33v-3.33ZM28.55,45.76h3.33v3.33h-3.33v-3.33ZM31.88,12.43h3.33v3.33h-3.33v-3.33ZM31.88,15.76h3.33v3.33h-3.33v-3.33ZM31.88,19.09h3.33v3.33h-3.33v-3.33ZM31.88,22.43h3.33v3.33h-3.33v-3.33ZM31.88,25.76h3.33v3.33h-3.33v-3.33ZM31.88,29.09h3.33v3.33h-3.33v-3.33ZM31.88,32.43h3.33v3.33h-3.33v-3.33ZM31.88,35.76h3.33v3.33h-3.33v-3.33ZM31.88,39.09h3.33v3.33h-3.33v-3.33ZM31.88,42.43h3.33v3.33h-3.33v-3.33ZM31.88,45.76h3.33v3.33h-3.33v-3.33ZM31.88,49.09h3.33v3.33h-3.33v-3.33ZM35.22,15.76h3.33v3.33h-3.33v-3.33ZM35.22,19.09h3.33v3.33h-3.33v-3.33ZM35.22,22.43h3.33v3.33h-3.33v-3.33ZM35.22,25.76h3.33v3.33h-3.33v-3.33ZM35.22,29.09h3.33v3.33h-3.33v-3.33ZM35.22,32.43h3.33v3.33h-3.33v-3.33ZM35.22,35.76h3.33v3.33h-3.33v-3.33ZM35.22,39.09h3.33v3.33h-3.33v-3.33ZM35.22,42.43h3.33v3.33h-3.33v-3.33ZM35.22,45.76h3.33v3.33h-3.33v-3.33ZM35.22,49.09h3.33v3.33h-3.33v-3.33ZM38.55,15.76h3.33v3.33h-3.33v-3.33ZM38.55,29.09h3.33v3.33h-3.33v-3.33ZM38.55,45.76h3.33v3.33h-3.33v-3.33ZM41.88,12.43h3.33v3.33h-3.33v-3.33ZM41.88,15.76h3.33v3.33h-3.33v-3.33ZM45.22,12.43h3.33v3.33h-3.33v-3.33ZM45.22,15.76h3.33v3.33h-3.33v-3.33ZM45.22,19.09h3.33v3.33h-3.33v-3.33ZM45.22,22.43h3.33v3.33h-3.33v-3.33ZM45.22,25.76h3.33v3.33h-3.33v-3.33ZM45.22,29.09h3.33v3.33h-3.33v-3.33ZM45.22,32.43h3.33v3.33h-3.33v-3.33ZM45.22,35.76h3.33v3.33h-3.33v-3.33ZM45.22,39.09h3.33v3.33h-3.33v-3.33ZM45.22,42.43h3.33v3.33h-3.33v-3.33ZM45.22,45.76h3.33v3.33h-3.33v-3.33ZM48.55,15.76h3.33v3.33h-3.33v-3.33ZM48.55,19.09h3.33v3.33h-3.33v-3.33ZM48.55,22.43h3.33v3.33h-3.33v-3.33ZM48.55,25.76h3.33v3.33h-3.33v-3.33ZM48.55,29.09h3.33v3.33h-3.33v-3.33ZM48.55,32.43h3.33v3.33h-3.33v-3.33ZM48.55,35.76h3.33v3.33h-3.33v-3.33ZM48.55,39.09h3.33v3.33h-3.33v-3.33ZM48.55,42.43h3.33v3.33h-3.33v-3.33ZM48.55,45.76h3.33v3.33h-3.33v-3.33ZM48.55,49.09h3.33v3.33h-3.33v-3.33ZM51.88,15.76h3.33v3.33h-3.33v-3.33ZM51.88,45.76h3.33v3.33h-3.33v-3.33Z"/>
</svg>